<svg width="614" height="144" viewBox="0 0 614 144" fill="none" xmlns="http://www.w3.org/2000/svg">
<rect width="143.652" height="143.652" rx="71.8262" fill="url(#paint0_linear_14376_161203)"/>
<path fill-rule="evenodd" clip-rule="evenodd" d="M54.6972 94.4436L66.3 83.4995C60.8628 81.7293 56.7764 77.2111 55.5675 71.6327C54.3585 66.0543 56.2088 60.2549 60.4271 56.4009L79.8658 38.0655C66.46 34.4743 52.2979 40.2299 45.2208 52.1457C38.1437 64.0615 39.8831 79.222 49.4759 89.2333L54.6972 94.4436ZM98.886 52.8082C100.363 55.4632 101.434 58.3232 102.065 61.2939L102.049 61.3177C104.238 71.3536 101.28 81.8185 94.1575 89.2332L71.8181 111.518L60.6762 100.368L82.1335 80.121L82.4434 79.8355C86.4399 76.0114 88.1857 70.4056 87.0654 64.9946C85.9451 59.5837 82.116 55.1273 76.9281 53.1968L88.7534 42.0465C92.9507 44.7664 96.427 48.4585 98.886 52.8082Z" fill="white"/>
<path d="M230.671 50.2102L218.12 54.1615C217.577 50.9849 215.989 48.0795 213.355 45.4453C210.721 42.8111 206.924 41.494 201.966 41.494C197.859 41.494 194.45 42.6561 191.739 44.9805C189.104 47.3048 187.787 50.094 187.787 53.348C187.787 59.0039 191.003 62.5291 197.433 63.9237L209.287 66.3642C216.415 67.7588 221.916 70.5867 225.79 74.848C229.664 79.1092 231.601 84.184 231.601 90.0723C231.601 96.8903 228.966 102.779 223.698 107.737C218.507 112.618 211.418 115.059 202.43 115.059C192.746 115.059 185.192 112.541 179.768 107.505C174.345 102.391 171.285 96.4641 170.587 89.7236L183.603 86.0047C184.068 90.6534 185.928 94.566 189.182 97.7425C192.436 100.919 196.852 102.507 202.43 102.507C207.234 102.507 210.914 101.461 213.471 99.3696C216.105 97.2002 217.422 94.4497 217.422 91.1182C217.422 88.4065 216.454 86.0822 214.517 84.1453C212.58 82.1308 209.868 80.7362 206.382 79.9615L194.76 77.5209C188.33 76.2038 183.216 73.5309 179.42 69.502C175.701 65.4732 173.841 60.4372 173.841 54.3939C173.841 47.4985 176.592 41.5715 182.093 36.6129C187.594 31.6543 194.179 29.1751 201.849 29.1751C210.604 29.1751 217.306 31.3057 221.955 35.567C226.603 39.7507 229.509 44.6318 230.671 50.2102Z" fill="black"/>
<path d="M235.727 97.975C235.727 93.1714 237.277 89.3362 240.376 86.4696C243.552 83.5254 247.697 81.666 252.811 80.8912L267.338 78.6831C270.127 78.2957 271.522 76.9399 271.522 74.6155C271.522 72.0588 270.631 70.0056 268.849 68.4561C267.067 66.8291 264.394 66.0156 260.83 66.0156C257.421 66.0156 254.709 66.984 252.695 68.921C250.68 70.7804 249.518 73.2209 249.208 76.2426L236.889 73.4534C237.432 68.3399 239.872 64.0011 244.211 60.4372C248.55 56.7957 254.05 54.975 260.713 54.975C268.926 54.975 274.969 56.9507 278.843 60.902C282.795 64.8534 284.77 69.9282 284.77 76.1263V104.251C284.77 107.97 285.003 110.991 285.467 113.315H272.916C272.529 112.153 272.335 109.752 272.335 106.11C268.616 112.076 262.805 115.059 254.903 115.059C249.169 115.059 244.521 113.393 240.957 110.061C237.47 106.652 235.727 102.624 235.727 97.975ZM257.459 104.483C261.643 104.483 265.013 103.36 267.57 101.113C270.204 98.7885 271.522 95.0308 271.522 89.8398V87.2831L256.762 89.4912C251.726 90.3434 249.208 92.9002 249.208 97.1614C249.208 99.1759 249.944 100.919 251.416 102.391C252.888 103.786 254.903 104.483 257.459 104.483Z" fill="black"/>
<path d="M319.917 40.6805C317.67 40.6805 315.694 41.339 313.99 42.6561C312.363 43.8958 311.549 46.1039 311.549 49.2804V56.7183H324.682V68.4561H311.549V113.315H297.952V68.4561H288.073V56.7183H297.952V48.9318C297.952 42.6561 299.773 37.6976 303.414 34.0561C307.055 30.4147 311.82 28.594 317.709 28.594C320.885 28.594 323.248 28.9814 324.798 29.7562V41.2615C323.481 40.8742 321.854 40.6805 319.917 40.6805Z" fill="black"/>
<path d="M339.631 78.7993H367.407C367.252 75.2354 365.973 72.2525 363.572 69.8507C361.247 67.4489 357.877 66.248 353.461 66.248C349.432 66.248 346.178 67.5264 343.699 70.0831C341.219 72.5624 339.864 75.4678 339.631 78.7993ZM368.918 93.5587L380.307 97.1614C378.68 102.352 375.619 106.652 371.126 110.061C366.709 113.393 361.247 115.059 354.739 115.059C346.682 115.059 339.825 112.308 334.169 106.807C328.591 101.306 325.801 93.9461 325.801 84.7263C325.801 76.0489 328.513 68.921 333.937 63.3426C339.437 57.7642 345.907 54.975 353.345 54.975C362.022 54.975 368.801 57.648 373.682 62.9939C378.563 68.2624 381.004 75.3903 381.004 84.3777C381.004 86.7795 380.888 88.2128 380.655 88.6777H339.282C339.437 92.9389 340.987 96.4641 343.931 99.2533C346.953 102.043 350.555 103.437 354.739 103.437C362.022 103.437 366.748 100.144 368.918 93.5587Z" fill="black"/>
<path d="M458.111 113.315H443.584L402.908 50.9075V113.315H388.962V30.9183H406.743L444.165 89.375V30.9183H458.111V113.315Z" fill="black"/>
<path d="M482.213 98.2074C485.312 101.384 489.07 102.972 493.486 102.972C497.903 102.972 501.622 101.384 504.643 98.2074C507.742 95.0308 509.292 90.6146 509.292 84.9588C509.292 79.3804 507.742 75.0417 504.643 71.9426C501.622 68.766 497.903 67.1777 493.486 67.1777C489.07 67.1777 485.312 68.766 482.213 71.9426C479.192 75.0417 477.681 79.3804 477.681 84.9588C477.681 90.5371 479.192 94.9533 482.213 98.2074ZM493.486 54.975C502.009 54.975 509.021 57.803 514.522 63.4588C520.1 69.1146 522.889 76.2813 522.889 84.9588C522.889 93.6362 520.1 100.842 514.522 106.575C509.021 112.231 502.009 115.059 493.486 115.059C485.041 115.059 478.03 112.231 472.451 106.575C466.95 100.842 464.2 93.6362 464.2 84.9588C464.2 76.2813 466.95 69.1146 472.451 63.4588C478.03 57.803 485.041 54.975 493.486 54.975Z" fill="black"/>
<path d="M560.82 56.7183H574.766L588.131 95.8831L599.404 56.7183H613.117L594.987 113.315H581.506L567.444 72.6399L553.731 113.315H539.901L521.539 56.7183H535.95L547.455 95.8831L560.82 56.7183Z" fill="black"/>
<defs>
<linearGradient id="paint0_linear_14376_161203" x1="19.3931" y1="21.5479" x2="120.668" y2="129.287" gradientUnits="userSpaceOnUse">
<stop stop-color="#0995FF"/>
<stop offset="1" stop-color="#0034E3"/>
</linearGradient>
</defs>
</svg>
